M48
; DRILL file {KiCad 8.99.0-unknown-5c22162d85~178~ubuntu22.04.1} date 2024-07-16T15:48:00+0100
; FORMAT={-:-/ absolute / inch / decimal}
; #@! TF.CreationDate,2024-07-16T15:48:00+01:00
; #@! TF.GenerationSoftware,Kicad,Pcbnew,8.99.0-unknown-5c22162d85~178~ubuntu22.04.1
; #@! TF.FileFunction,Plated,1,2,PTH
FMAT,2
INCH
; #@! TA.AperFunction,Plated,PTH,ComponentDrill
T1C0.0276
; #@! TA.AperFunction,Plated,PTH,ComponentDrill
T2C0.0303
; #@! TA.AperFunction,Plated,PTH,ComponentDrill
T3C0.0315
; #@! TA.AperFunction,Plated,PTH,ComponentDrill
T4C0.0394
; #@! TA.AperFunction,Plated,PTH,ComponentDrill
T5C0.0413
; #@! TA.AperFunction,Plated,PTH,ComponentDrill
T6C0.0440
%
G90
G05
T1
X7.3955Y-2.9572
X7.5955Y-2.9572
T2
X7.2659Y-4.1777
X7.2659Y-4.4903
X7.3659Y-4.1777
X7.3659Y-4.4903
X7.4659Y-4.1777
X7.4659Y-4.4903
X7.5659Y-4.1777
X7.5659Y-4.4903
X7.6659Y-4.1777
X7.6659Y-4.4903
X7.7659Y-4.1777
X7.7659Y-4.4903
X7.8659Y-4.1777
X7.8659Y-4.4903
T3
X5.7876Y-3.9809
X5.886Y-3.9809
X8.199Y-4.345
X8.199Y-4.4434
X8.2184Y-2.9557
X8.2184Y-3.0557
X8.2184Y-3.1557
X8.5282Y-2.9285
X8.5978Y-2.8589
T4
X8.7555Y-2.9705
X8.7555Y-3.0705
X8.7555Y-3.1705
X8.7555Y-3.2705
X8.7555Y-3.3705
X8.7555Y-3.4705
X8.7555Y-3.5705
X8.7555Y-3.6705
X8.7555Y-3.7705
X8.7555Y-3.8705
X8.7555Y-3.9705
X8.7555Y-4.0705
X8.7555Y-4.1705
X8.7555Y-4.2705
X8.7555Y-4.3705
X9.3555Y-2.9705
X9.3555Y-3.0705
X9.3555Y-3.1705
X9.3555Y-3.2705
X9.3555Y-3.3705
X9.3555Y-3.4705
X9.3555Y-3.5705
X9.3555Y-3.6705
X9.3555Y-3.7705
X9.3555Y-3.8705
X9.3555Y-3.9705
X9.3555Y-4.0705
X9.3555Y-4.1705
X9.3555Y-4.2705
X9.3555Y-4.3705
T5
X5.7801Y-3.1738
X5.7801Y-3.7738
X5.8801Y-3.1738
X5.8801Y-3.7738
X5.9801Y-3.1738
X5.9801Y-3.7738
X6.0801Y-3.1738
X6.0801Y-3.7738
X6.1801Y-3.1738
X6.1801Y-3.7738
X6.2801Y-3.1738
X6.2801Y-3.7738
X6.3801Y-3.1738
X6.3801Y-3.7738
X6.4801Y-3.1738
X6.4801Y-3.7738
X6.5801Y-3.1738
X6.5801Y-3.7738
X6.6801Y-3.1738
X6.6801Y-3.7738
X6.7801Y-3.1738
X6.7801Y-3.7738
X6.8801Y-3.1738
X6.8801Y-3.7738
X6.9801Y-3.1738
X6.9801Y-3.7738
X7.0801Y-3.1738
X7.0801Y-3.7738
X7.1801Y-3.1738
X7.1801Y-3.7738
X7.2801Y-3.1738
X7.2801Y-3.7738
X7.3801Y-3.1738
X7.3801Y-3.7738
X7.4801Y-3.1738
X7.4801Y-3.7738
X7.5801Y-3.1738
X7.5801Y-3.7738
X7.6801Y-3.1738
X7.6801Y-3.7738
T6
X5.9766Y-4.1777
X5.9766Y-4.4777
X6.0766Y-4.1777
X6.0766Y-4.4777
X6.1766Y-4.1777
X6.1766Y-4.4777
X6.2766Y-4.1777
X6.2766Y-4.4777
X6.3766Y-4.1777
X6.3766Y-4.4777
X6.4766Y-4.1777
X6.4766Y-4.4777
X6.5766Y-4.1777
X6.5766Y-4.4777
X6.6766Y-4.1777
X6.6766Y-4.4777
X6.7766Y-4.1777
X6.7766Y-4.4777
X6.8766Y-4.1777
X6.8766Y-4.4777
M30
