G04 #@! TF.GenerationSoftware,KiCad,Pcbnew,8.99.0-unknown-5c22162d85~178~ubuntu22.04.1*
G04 #@! TF.CreationDate,2024-07-16T15:48:16+01:00*
G04 #@! TF.ProjectId,Leguino,4c656775-696e-46f2-9e6b-696361645f70,1.0.1*
G04 #@! TF.SameCoordinates,Original*
G04 #@! TF.FileFunction,Copper,L2,Bot*
G04 #@! TF.FilePolarity,Positive*
%FSLAX46Y46*%
G04 Gerber Fmt 4.6, Leading zero omitted, Abs format (unit mm)*
G04 Created by KiCad (PCBNEW 8.99.0-unknown-5c22162d85~178~ubuntu22.04.1) date 2024-07-16 15:48:16*
%MOMM*%
%LPD*%
G01*
G04 APERTURE LIST*
G04 #@! TA.AperFunction,SMDPad,CuDef*
%ADD10R,1.524000X6.350000*%
G04 #@! TD*
G04 #@! TA.AperFunction,ComponentPad*
%ADD11C,1.400000*%
G04 #@! TD*
G04 #@! TA.AperFunction,ComponentPad*
%ADD12O,1.400000X1.400000*%
G04 #@! TD*
G04 #@! TA.AperFunction,ComponentPad*
%ADD13C,1.575000*%
G04 #@! TD*
G04 #@! TA.AperFunction,ComponentPad*
%ADD14R,1.575000X1.575000*%
G04 #@! TD*
G04 #@! TA.AperFunction,ComponentPad*
%ADD15R,1.500000X1.500000*%
G04 #@! TD*
G04 #@! TA.AperFunction,ComponentPad*
%ADD16C,1.500000*%
G04 #@! TD*
G04 #@! TA.AperFunction,ComponentPad*
%ADD17R,1.170000X1.170000*%
G04 #@! TD*
G04 #@! TA.AperFunction,ComponentPad*
%ADD18C,1.170000*%
G04 #@! TD*
G04 #@! TA.AperFunction,ComponentPad*
%ADD19R,1.676400X1.676400*%
G04 #@! TD*
G04 #@! TA.AperFunction,ComponentPad*
%ADD20C,1.676400*%
G04 #@! TD*
G04 #@! TA.AperFunction,ComponentPad*
%ADD21R,1.600000X1.600000*%
G04 #@! TD*
G04 #@! TA.AperFunction,ComponentPad*
%ADD22O,1.600000X1.600000*%
G04 #@! TD*
G04 #@! TA.AperFunction,ComponentPad*
%ADD23C,1.600000*%
G04 #@! TD*
G04 #@! TA.AperFunction,Conductor*
%ADD24C,0.250000*%
G04 #@! TD*
G04 #@! TA.AperFunction,Conductor*
%ADD25C,0.700000*%
G04 #@! TD*
G04 #@! TA.AperFunction,Conductor*
%ADD26C,0.800000*%
G04 #@! TD*
G04 #@! TA.AperFunction,Conductor*
%ADD27C,0.500000*%
G04 #@! TD*
G04 #@! TA.AperFunction,Conductor*
%ADD28C,0.400000*%
G04 #@! TD*
G04 APERTURE END LIST*
D10*
X231140000Y-128397000D03*
X228600000Y-128397000D03*
X226060000Y-128397000D03*
X223520000Y-128397000D03*
X220980000Y-128397000D03*
X218440000Y-128397000D03*
X215900000Y-128397000D03*
X213360000Y-128397000D03*
X210820000Y-128397000D03*
X208280000Y-128397000D03*
X205740000Y-128397000D03*
X203200000Y-128397000D03*
X200660000Y-128397000D03*
X198120000Y-128397000D03*
X195580000Y-128397000D03*
X193040000Y-128397000D03*
X190500000Y-128397000D03*
X187960000Y-128397000D03*
X185420000Y-128397000D03*
X182880000Y-128397000D03*
X180340000Y-128397000D03*
X177800000Y-128397000D03*
X175260000Y-128397000D03*
X172720000Y-128397000D03*
X170180000Y-128397000D03*
D11*
X187846396Y-75113604D03*
D12*
X192926396Y-75113604D03*
D13*
X146814490Y-80613604D03*
X156974490Y-95853604D03*
X189994490Y-80613604D03*
X187454490Y-80613604D03*
X184914490Y-80613604D03*
X182374490Y-80613604D03*
X179834490Y-80613604D03*
X177294490Y-80613604D03*
X174754490Y-80613604D03*
X146814490Y-95853604D03*
X149354490Y-95853604D03*
X151894490Y-95853604D03*
X179834490Y-95853604D03*
X182374490Y-95853604D03*
X184914490Y-95853604D03*
X187454490Y-95853604D03*
X189994490Y-95853604D03*
X192534490Y-95853604D03*
X195074490Y-95853604D03*
X151894490Y-80613604D03*
X149354490Y-80613604D03*
X154434490Y-95853604D03*
X177294490Y-95853604D03*
X174754490Y-95853604D03*
X172214490Y-95853604D03*
X169674490Y-95853604D03*
X167134490Y-95853604D03*
X164594490Y-95853604D03*
X162054490Y-95853604D03*
X159514490Y-95853604D03*
X192534490Y-80613604D03*
X172214490Y-80613604D03*
X169674490Y-80613604D03*
X167134490Y-80613604D03*
X164594490Y-80613604D03*
X162054490Y-80613604D03*
X159514490Y-80613604D03*
X156974490Y-80613604D03*
X154434490Y-80613604D03*
D14*
X195074490Y-80613604D03*
D15*
X208746396Y-80153604D03*
D16*
X208746396Y-77613604D03*
X208746396Y-75073604D03*
D17*
X199794490Y-106113604D03*
D18*
X197254490Y-106113604D03*
X194714490Y-106113604D03*
X192174490Y-106113604D03*
X189634490Y-106113604D03*
X187094490Y-106113604D03*
X184554490Y-106113604D03*
X184554490Y-114053604D03*
X187094490Y-114053604D03*
X189634490Y-114053604D03*
X192174490Y-114053604D03*
X194714490Y-114053604D03*
X197254490Y-114053604D03*
X199794490Y-114053604D03*
D19*
X174666396Y-106113604D03*
D20*
X172126396Y-106113604D03*
X169586396Y-106113604D03*
X167046396Y-106113604D03*
X164506396Y-106113604D03*
X161966396Y-106113604D03*
X159426396Y-106113604D03*
X156886396Y-106113604D03*
X154346396Y-106113604D03*
X151806396Y-106113604D03*
X151806396Y-113733604D03*
X154346396Y-113733604D03*
X156886396Y-113733604D03*
X159426396Y-113733604D03*
X161966396Y-113733604D03*
X164506396Y-113733604D03*
X167046396Y-113733604D03*
X169586396Y-113733604D03*
X172126396Y-113733604D03*
X174666396Y-113733604D03*
D21*
X222390000Y-75450000D03*
D22*
X222390000Y-77990000D03*
X222390000Y-80530000D03*
X222390000Y-83070000D03*
X222390000Y-85610000D03*
X222390000Y-88150000D03*
X222390000Y-90690000D03*
X222390000Y-93230000D03*
X222390000Y-95770000D03*
X222390000Y-98310000D03*
X222390000Y-100850000D03*
X222390000Y-103390000D03*
X222390000Y-105930000D03*
X222390000Y-108470000D03*
X222390000Y-111010000D03*
X237630000Y-111010000D03*
X237630000Y-108470000D03*
X237630000Y-105930000D03*
X237630000Y-103390000D03*
X237630000Y-100850000D03*
X237630000Y-98310000D03*
X237630000Y-95770000D03*
X237630000Y-93230000D03*
X237630000Y-90690000D03*
X237630000Y-88150000D03*
X237630000Y-85610000D03*
X237630000Y-83070000D03*
X237630000Y-80530000D03*
X237630000Y-77990000D03*
X237630000Y-75450000D03*
D23*
X208254490Y-110363604D03*
X208254490Y-112863604D03*
X216616116Y-74383884D03*
X218383883Y-72616117D03*
X147004490Y-101113604D03*
X149504490Y-101113604D03*
D24*
X162054490Y-101781698D02*
X163386396Y-103113604D01*
X176386396Y-109613604D02*
X165386396Y-109613604D01*
X194714490Y-114053604D02*
X194714490Y-109785510D01*
X179386396Y-109613604D02*
X177886396Y-111113604D01*
X169586396Y-107813604D02*
X169586396Y-106113604D01*
X167134490Y-95853604D02*
X167134490Y-101361698D01*
X174754490Y-95853604D02*
X174754490Y-98981698D01*
X176386396Y-101613604D02*
X177886396Y-103113604D01*
X159426396Y-108573604D02*
X159426396Y-106113604D01*
X179886396Y-110113604D02*
X178386396Y-111613604D01*
X177886396Y-111113604D02*
X157886396Y-111113604D01*
X189634490Y-104365510D02*
X189634490Y-106113604D01*
X172214490Y-95853604D02*
X172214490Y-99441698D01*
X167134490Y-101361698D02*
X167386396Y-101613604D01*
X175886396Y-109113604D02*
X168886396Y-109113604D01*
X167046396Y-107273604D02*
X167046396Y-106113604D01*
X177386396Y-103613604D02*
X177386396Y-107613604D01*
X177294490Y-99021698D02*
X179886396Y-101613604D01*
X175386396Y-103113604D02*
X176886396Y-104613604D01*
X176886396Y-107113604D02*
X175386396Y-108613604D01*
X160886396Y-103613604D02*
X159514490Y-102241698D01*
X172214490Y-99441698D02*
X172886396Y-100113604D01*
X174754490Y-98981698D02*
X175386396Y-99613604D01*
D25*
X219000000Y-72000000D02*
X234180000Y-72000000D01*
D24*
X162054490Y-95853604D02*
X162054490Y-101781698D01*
X156886396Y-110113604D02*
X157886396Y-111113604D01*
X178386396Y-103113604D02*
X178386396Y-108613604D01*
X175886396Y-102113604D02*
X177386396Y-103613604D01*
X168886396Y-109113604D02*
X167046396Y-107273604D01*
X159514490Y-102241698D02*
X159514490Y-95853604D01*
X155886396Y-111613604D02*
X154386396Y-110113604D01*
X172126396Y-104853604D02*
X170886396Y-103613604D01*
X190386396Y-103613604D02*
X189634490Y-104365510D01*
X169674490Y-95853604D02*
X169674490Y-98901698D01*
X164594490Y-95853604D02*
X164594490Y-101321698D01*
X176386396Y-100113604D02*
X178886396Y-102613604D01*
X178386396Y-108613604D02*
X176886396Y-110113604D01*
X176886396Y-104613604D02*
X176886396Y-107113604D01*
X161966396Y-109193604D02*
X161966396Y-106113604D01*
X194886396Y-103613604D02*
X190386396Y-103613604D01*
X162886396Y-110113604D02*
X161966396Y-109193604D01*
X167386396Y-101613604D02*
X176386396Y-101613604D01*
X154386396Y-110113604D02*
X154346396Y-110073604D01*
X177886396Y-108113604D02*
X176386396Y-109613604D01*
X170386396Y-108613604D02*
X169586396Y-107813604D01*
X156886396Y-110113604D02*
X156886396Y-106113604D01*
X169674490Y-98901698D02*
X171886396Y-101113604D01*
X179386396Y-102113604D02*
X179386396Y-109613604D01*
X170886396Y-103613604D02*
X160886396Y-103613604D01*
X175386396Y-99613604D02*
X176886396Y-99613604D01*
X172126396Y-106113604D02*
X172126396Y-104853604D01*
X176386396Y-101113604D02*
X178386396Y-103113604D01*
X165386396Y-102113604D02*
X175886396Y-102113604D01*
X161466396Y-110613604D02*
X159426396Y-108573604D01*
X178886396Y-109113604D02*
X177386396Y-110613604D01*
D25*
X218383883Y-72616117D02*
X219000000Y-72000000D01*
D24*
X177386396Y-107613604D02*
X175886396Y-109113604D01*
X172886396Y-100113604D02*
X176386396Y-100113604D01*
X154346396Y-110073604D02*
X154346396Y-106113604D01*
X165386396Y-109613604D02*
X164506396Y-108733604D01*
X164594490Y-101321698D02*
X165386396Y-102113604D01*
X177886396Y-103113604D02*
X177886396Y-108113604D01*
X163386396Y-103113604D02*
X175386396Y-103113604D01*
X177294490Y-95853604D02*
X177294490Y-99021698D01*
X176886396Y-99613604D02*
X179386396Y-102113604D01*
X178386396Y-111613604D02*
X155886396Y-111613604D01*
X195886396Y-108613604D02*
X195886396Y-104613604D01*
X171886396Y-101113604D02*
X176386396Y-101113604D01*
X175386396Y-108613604D02*
X170386396Y-108613604D01*
X194714490Y-109785510D02*
X195886396Y-108613604D01*
X177386396Y-110613604D02*
X161466396Y-110613604D01*
X178886396Y-102613604D02*
X178886396Y-109113604D01*
X164506396Y-108733604D02*
X164506396Y-106113604D01*
X195886396Y-104613604D02*
X194886396Y-103613604D01*
D25*
X234180000Y-72000000D02*
X237630000Y-75450000D01*
D24*
X176886396Y-110113604D02*
X162886396Y-110113604D01*
X179886396Y-101613604D02*
X179886396Y-110113604D01*
X172720000Y-128397000D02*
X172720000Y-124920000D01*
X162072792Y-124000000D02*
X151806396Y-113733604D01*
X171800000Y-124000000D02*
X162072792Y-124000000D01*
X172720000Y-124920000D02*
X171800000Y-124000000D01*
X175260000Y-128397000D02*
X175260000Y-123960000D01*
X174800000Y-123500000D02*
X164112792Y-123500000D01*
X175260000Y-123960000D02*
X174800000Y-123500000D01*
X164112792Y-123500000D02*
X154346396Y-113733604D01*
X166152792Y-123000000D02*
X156886396Y-113733604D01*
X176300000Y-123000000D02*
X166152792Y-123000000D01*
X177800000Y-124500000D02*
X176300000Y-123000000D01*
X177800000Y-128397000D02*
X177800000Y-124500000D01*
X168192792Y-122500000D02*
X159426396Y-113733604D01*
X180340000Y-128397000D02*
X180340000Y-125984000D01*
X180340000Y-125984000D02*
X176856000Y-122500000D01*
X176856000Y-122500000D02*
X168192792Y-122500000D01*
X182880000Y-125984000D02*
X178896000Y-122000000D01*
X178896000Y-122000000D02*
X170232792Y-122000000D01*
X182880000Y-128397000D02*
X182880000Y-125984000D01*
X170232792Y-122000000D02*
X161966396Y-113733604D01*
X185420000Y-122620000D02*
X183800000Y-121000000D01*
X171300000Y-121000000D02*
X165800000Y-115500000D01*
X165800000Y-115027208D02*
X164506396Y-113733604D01*
X183800000Y-121000000D02*
X171300000Y-121000000D01*
X185420000Y-128397000D02*
X185420000Y-122620000D01*
X165800000Y-115500000D02*
X165800000Y-115027208D01*
X187960000Y-123660000D02*
X187960000Y-128397000D01*
X167046396Y-113733604D02*
X167046396Y-115246396D01*
X167046396Y-115246396D02*
X171800000Y-120000000D01*
X184300000Y-120000000D02*
X187960000Y-123660000D01*
X171800000Y-120000000D02*
X184300000Y-120000000D01*
X190500000Y-128397000D02*
X190500000Y-124700000D01*
X169586396Y-115286396D02*
X169586396Y-113733604D01*
X173300000Y-119000000D02*
X169586396Y-115286396D01*
X184800000Y-119000000D02*
X173300000Y-119000000D01*
X190500000Y-124700000D02*
X184800000Y-119000000D01*
X185800000Y-118000000D02*
X193040000Y-125240000D01*
X193040000Y-125240000D02*
X193040000Y-128397000D01*
X172126396Y-113733604D02*
X176392792Y-118000000D01*
X176392792Y-118000000D02*
X185800000Y-118000000D01*
X195072792Y-103163604D02*
X190200000Y-103163604D01*
X188724490Y-115424490D02*
X195580000Y-122280000D01*
X197254490Y-106113604D02*
X197254490Y-114053604D01*
X197254490Y-106113604D02*
X197254490Y-105345302D01*
X199794490Y-106113604D02*
X197254490Y-106113604D01*
X195580000Y-122280000D02*
X195580000Y-128397000D01*
X190200000Y-103163604D02*
X188724490Y-104639114D01*
X188724490Y-104639114D02*
X188724490Y-115424490D01*
X197254490Y-105345302D02*
X195072792Y-103163604D01*
X196800000Y-115500000D02*
X205740000Y-124440000D01*
X194714490Y-108785510D02*
X192174490Y-111325510D01*
X192174490Y-111325510D02*
X192174490Y-114053604D01*
X193620886Y-115500000D02*
X196800000Y-115500000D01*
X194714490Y-106113604D02*
X194714490Y-108785510D01*
X205740000Y-124440000D02*
X205740000Y-128397000D01*
X192174490Y-114053604D02*
X193620886Y-115500000D01*
X179834490Y-98561698D02*
X179834490Y-95853604D01*
X218440000Y-123000000D02*
X216940000Y-121500000D01*
X216940000Y-121500000D02*
X203800000Y-121500000D01*
X201386396Y-99113604D02*
X180386396Y-99113604D01*
X202386396Y-120086396D02*
X202386396Y-100113604D01*
X202386396Y-100113604D02*
X201386396Y-99113604D01*
X180386396Y-99113604D02*
X179834490Y-98561698D01*
X203800000Y-121500000D02*
X202386396Y-120086396D01*
X218440000Y-128397000D02*
X218440000Y-123000000D01*
X205386396Y-94386396D02*
X201613604Y-90613604D01*
X146814490Y-94185510D02*
X146814490Y-95853604D01*
X220300000Y-120500000D02*
X206472792Y-120500000D01*
X206472792Y-120500000D02*
X205386396Y-119413604D01*
X205386396Y-119413604D02*
X205386396Y-94386396D01*
X220980000Y-128397000D02*
X220980000Y-121180000D01*
X150386396Y-90613604D02*
X146814490Y-94185510D01*
X220980000Y-121180000D02*
X220300000Y-120500000D01*
X201613604Y-90613604D02*
X150386396Y-90613604D01*
D26*
X190300000Y-75500000D02*
X190300000Y-70613604D01*
X239500000Y-74500000D02*
X235613604Y-70613604D01*
D24*
X231140000Y-115253604D02*
X231000000Y-115113604D01*
D26*
X239500000Y-78000000D02*
X238800000Y-78000000D01*
X141386396Y-72613604D02*
X141386396Y-105613604D01*
X143386396Y-70613604D02*
X141386396Y-72613604D01*
X236386396Y-115113604D02*
X239500000Y-112000000D01*
X141386396Y-105613604D02*
X141886396Y-106113604D01*
X141886396Y-106113604D02*
X151806396Y-106113604D01*
X239500000Y-78000000D02*
X239500000Y-74500000D01*
X195074490Y-80613604D02*
X195074490Y-80274490D01*
X208254490Y-110363604D02*
X213004490Y-115113604D01*
X235613604Y-70613604D02*
X190300000Y-70613604D01*
X238790000Y-77990000D02*
X237630000Y-77990000D01*
X190300000Y-70613604D02*
X143386396Y-70613604D01*
X195074490Y-80274490D02*
X190300000Y-75500000D01*
D24*
X231140000Y-128397000D02*
X231140000Y-115253604D01*
D26*
X238800000Y-78000000D02*
X238790000Y-77990000D01*
X239500000Y-112000000D02*
X239500000Y-78000000D01*
X213004490Y-115113604D02*
X236386396Y-115113604D01*
D27*
X152386396Y-98613604D02*
X154434490Y-96565510D01*
D25*
X208746396Y-80153604D02*
X210846396Y-80153604D01*
D27*
X147004490Y-101113604D02*
X149504490Y-98613604D01*
D25*
X210846396Y-80153604D02*
X216616116Y-74383884D01*
D24*
X189634490Y-111365510D02*
X189634490Y-114053604D01*
X192174490Y-108825510D02*
X189634490Y-111365510D01*
D27*
X142754490Y-99613604D02*
X144254490Y-101113604D01*
X143754490Y-80613604D02*
X142754490Y-81613604D01*
X149504490Y-98613604D02*
X152386396Y-98613604D01*
D24*
X192174490Y-106113604D02*
X192174490Y-108825510D01*
D27*
X146814490Y-80613604D02*
X143754490Y-80613604D01*
X144254490Y-101113604D02*
X147004490Y-101113604D01*
X142754490Y-81613604D02*
X142754490Y-99613604D01*
X154434490Y-96565510D02*
X154434490Y-95853604D01*
D24*
X222390000Y-103390000D02*
X215026396Y-103390000D01*
X215026396Y-103390000D02*
X197700000Y-86063604D01*
X197700000Y-86063604D02*
X155836396Y-86063604D01*
X155836396Y-86063604D02*
X154386396Y-84613604D01*
X222390000Y-103390000D02*
X222390000Y-103814490D01*
X154386396Y-84613604D02*
X154386396Y-80661698D01*
X154386396Y-80661698D02*
X154434490Y-80613604D01*
X222390000Y-100850000D02*
X216650000Y-100850000D01*
X216650000Y-100850000D02*
X201413604Y-85613604D01*
X201413604Y-85613604D02*
X157886396Y-85613604D01*
X156974490Y-84701698D02*
X156974490Y-80613604D01*
X157886396Y-85613604D02*
X156974490Y-84701698D01*
X160386396Y-85113604D02*
X159514490Y-84241698D01*
X222390000Y-98310000D02*
X214875508Y-98310000D01*
X201679112Y-85113604D02*
X160386396Y-85113604D01*
X159514490Y-84241698D02*
X159514490Y-80613604D01*
X222390000Y-98734490D02*
X222390000Y-98310000D01*
X214875508Y-98310000D02*
X201679112Y-85113604D01*
X212971904Y-95770000D02*
X222390000Y-95770000D01*
X201815508Y-84613604D02*
X212971904Y-95770000D01*
X163386396Y-84613604D02*
X201815508Y-84613604D01*
X162054490Y-83281698D02*
X163386396Y-84613604D01*
X162054490Y-80613604D02*
X162054490Y-83281698D01*
X164594490Y-83321698D02*
X164594490Y-80613604D01*
X210513300Y-92675000D02*
X201951904Y-84113604D01*
X222390000Y-93230000D02*
X221835000Y-92675000D01*
X222390000Y-93230000D02*
X222390000Y-93654490D01*
X221835000Y-92675000D02*
X210513300Y-92675000D01*
X165386396Y-84113604D02*
X164594490Y-83321698D01*
X201951904Y-84113604D02*
X165386396Y-84113604D01*
X210699696Y-92225000D02*
X202088300Y-83613604D01*
X170134490Y-83613604D02*
X167134490Y-80613604D01*
X220855000Y-92225000D02*
X210699696Y-92225000D01*
X202088300Y-83613604D02*
X170134490Y-83613604D01*
X222390000Y-90690000D02*
X220855000Y-92225000D01*
X219189490Y-91775000D02*
X217528123Y-91775000D01*
X217528123Y-91775000D02*
X210886092Y-91775000D01*
X222390000Y-88150000D02*
X222390000Y-88574490D01*
X210886092Y-91775000D02*
X202224696Y-83113604D01*
X172174490Y-83113604D02*
X169674490Y-80613604D01*
X202224696Y-83113604D02*
X172174490Y-83113604D01*
X222390000Y-88574490D02*
X219189490Y-91775000D01*
X174214490Y-82613604D02*
X172214490Y-80613604D01*
X217341727Y-91325000D02*
X211072488Y-91325000D01*
X211072488Y-91325000D02*
X202361092Y-82613604D01*
X222390000Y-85610000D02*
X222390000Y-86276727D01*
X222390000Y-86276727D02*
X217341727Y-91325000D01*
X202361092Y-82613604D02*
X174214490Y-82613604D01*
D28*
X203386396Y-77613604D02*
X208746396Y-77613604D01*
X192926396Y-75113604D02*
X200886396Y-75113604D01*
X200886396Y-75113604D02*
X203386396Y-77613604D01*
M02*
