G04 #@! TF.GenerationSoftware,KiCad,Pcbnew,8.99.0-unknown-5c22162d85~178~ubuntu22.04.1*
G04 #@! TF.CreationDate,2024-07-16T15:48:17+01:00*
G04 #@! TF.ProjectId,Leguino,4c656775-696e-46f2-9e6b-696361645f70,1.0.1*
G04 #@! TF.SameCoordinates,Original*
G04 #@! TF.FileFunction,Other,User*
%FSLAX46Y46*%
G04 Gerber Fmt 4.6, Leading zero omitted, Abs format (unit mm)*
G04 Created by KiCad (PCBNEW 8.99.0-unknown-5c22162d85~178~ubuntu22.04.1) date 2024-07-16 15:48:17*
%MOMM*%
%LPD*%
G01*
G04 APERTURE LIST*
%ADD10C,0.050000*%
G04 APERTURE END LIST*
D10*
X186896396Y-74063604D02*
X186896396Y-76163604D01*
X186896396Y-76163604D02*
X193876396Y-76163604D01*
X193876396Y-74063604D02*
X186896396Y-74063604D01*
X193876396Y-76163604D02*
X193876396Y-74063604D01*
X145294490Y-79093604D02*
X196594490Y-79093604D01*
X145294490Y-97373604D02*
X145294490Y-79093604D01*
X196594490Y-79093604D02*
X196594490Y-97373604D01*
X196594490Y-97373604D02*
X145294490Y-97373604D01*
X206016396Y-81163604D02*
X206016396Y-74063604D01*
X206016396Y-81163604D02*
X210756396Y-81163604D01*
X210756396Y-74063604D02*
X206016396Y-74063604D01*
X210756396Y-74063604D02*
X210756396Y-81163604D01*
X182079490Y-114888604D02*
X182079490Y-105278604D01*
X202269490Y-105278604D02*
X182079490Y-105278604D01*
X202269490Y-114888604D02*
X182079490Y-114888604D01*
X202269490Y-114888604D02*
X202269490Y-105278604D01*
X220860000Y-71390000D02*
X220860000Y-117610000D01*
X220860000Y-71390000D02*
X239140000Y-71390000D01*
X239140000Y-117610000D02*
X220860000Y-117610000D01*
X239140000Y-117610000D02*
X239140000Y-71390000D01*
X207204490Y-109313604D02*
X207204490Y-113913604D01*
X207204490Y-113913604D02*
X209304490Y-113913604D01*
X209304490Y-109313604D02*
X207204490Y-109313604D01*
X209304490Y-113913604D02*
X209304490Y-109313604D01*
X215131192Y-74383884D02*
X216616116Y-75868808D01*
X216616116Y-75868808D02*
X219868809Y-72616117D01*
X218383883Y-71131193D02*
X215131192Y-74383884D01*
X219868809Y-72616117D02*
X218383883Y-71131193D01*
X145954490Y-100063604D02*
X145954490Y-102163604D01*
X145954490Y-102163604D02*
X150554490Y-102163604D01*
X150554490Y-100063604D02*
X145954490Y-100063604D01*
X150554490Y-102163604D02*
X150554490Y-100063604D01*
M02*
