G04 #@! TF.GenerationSoftware,KiCad,Pcbnew,8.99.0-unknown-5c22162d85~178~ubuntu22.04.1*
G04 #@! TF.CreationDate,2024-07-16T15:48:16+01:00*
G04 #@! TF.ProjectId,Leguino,4c656775-696e-46f2-9e6b-696361645f70,1.0.1*
G04 #@! TF.SameCoordinates,Original*
G04 #@! TF.FileFunction,Copper,L1,Top*
G04 #@! TF.FilePolarity,Positive*
%FSLAX46Y46*%
G04 Gerber Fmt 4.6, Leading zero omitted, Abs format (unit mm)*
G04 Created by KiCad (PCBNEW 8.99.0-unknown-5c22162d85~178~ubuntu22.04.1) date 2024-07-16 15:48:16*
%MOMM*%
%LPD*%
G01*
G04 APERTURE LIST*
G04 #@! TA.AperFunction,SMDPad,CuDef*
%ADD10R,1.524000X6.350000*%
G04 #@! TD*
G04 #@! TA.AperFunction,ComponentPad*
%ADD11C,1.400000*%
G04 #@! TD*
G04 #@! TA.AperFunction,ComponentPad*
%ADD12O,1.400000X1.400000*%
G04 #@! TD*
G04 #@! TA.AperFunction,ComponentPad*
%ADD13C,1.575000*%
G04 #@! TD*
G04 #@! TA.AperFunction,ComponentPad*
%ADD14R,1.575000X1.575000*%
G04 #@! TD*
G04 #@! TA.AperFunction,ComponentPad*
%ADD15R,1.500000X1.500000*%
G04 #@! TD*
G04 #@! TA.AperFunction,ComponentPad*
%ADD16C,1.500000*%
G04 #@! TD*
G04 #@! TA.AperFunction,ComponentPad*
%ADD17R,1.170000X1.170000*%
G04 #@! TD*
G04 #@! TA.AperFunction,ComponentPad*
%ADD18C,1.170000*%
G04 #@! TD*
G04 #@! TA.AperFunction,ComponentPad*
%ADD19R,1.676400X1.676400*%
G04 #@! TD*
G04 #@! TA.AperFunction,ComponentPad*
%ADD20C,1.676400*%
G04 #@! TD*
G04 #@! TA.AperFunction,ComponentPad*
%ADD21R,1.600000X1.600000*%
G04 #@! TD*
G04 #@! TA.AperFunction,ComponentPad*
%ADD22O,1.600000X1.600000*%
G04 #@! TD*
G04 #@! TA.AperFunction,ComponentPad*
%ADD23C,1.600000*%
G04 #@! TD*
G04 #@! TA.AperFunction,Conductor*
%ADD24C,0.250000*%
G04 #@! TD*
G04 #@! TA.AperFunction,Conductor*
%ADD25C,0.400000*%
G04 #@! TD*
G04 #@! TA.AperFunction,Conductor*
%ADD26C,0.800000*%
G04 #@! TD*
G04 #@! TA.AperFunction,Conductor*
%ADD27C,0.500000*%
G04 #@! TD*
G04 APERTURE END LIST*
D10*
X170180000Y-128397000D03*
X172720000Y-128397000D03*
X175260000Y-128397000D03*
X177800000Y-128397000D03*
X180340000Y-128397000D03*
X182880000Y-128397000D03*
X185420000Y-128397000D03*
X187960000Y-128397000D03*
X190500000Y-128397000D03*
X193040000Y-128397000D03*
X195580000Y-128397000D03*
X198120000Y-128397000D03*
X200660000Y-128397000D03*
X203200000Y-128397000D03*
X205740000Y-128397000D03*
X208280000Y-128397000D03*
X210820000Y-128397000D03*
X213360000Y-128397000D03*
X215900000Y-128397000D03*
X218440000Y-128397000D03*
X220980000Y-128397000D03*
X223520000Y-128397000D03*
X226060000Y-128397000D03*
X228600000Y-128397000D03*
X231140000Y-128397000D03*
D11*
X187846396Y-75113604D03*
D12*
X192926396Y-75113604D03*
D13*
X146814490Y-80613604D03*
X156974490Y-95853604D03*
X189994490Y-80613604D03*
X187454490Y-80613604D03*
X184914490Y-80613604D03*
X182374490Y-80613604D03*
X179834490Y-80613604D03*
X177294490Y-80613604D03*
X174754490Y-80613604D03*
X146814490Y-95853604D03*
X149354490Y-95853604D03*
X151894490Y-95853604D03*
X179834490Y-95853604D03*
X182374490Y-95853604D03*
X184914490Y-95853604D03*
X187454490Y-95853604D03*
X189994490Y-95853604D03*
X192534490Y-95853604D03*
X195074490Y-95853604D03*
X151894490Y-80613604D03*
X149354490Y-80613604D03*
X154434490Y-95853604D03*
X177294490Y-95853604D03*
X174754490Y-95853604D03*
X172214490Y-95853604D03*
X169674490Y-95853604D03*
X167134490Y-95853604D03*
X164594490Y-95853604D03*
X162054490Y-95853604D03*
X159514490Y-95853604D03*
X192534490Y-80613604D03*
X172214490Y-80613604D03*
X169674490Y-80613604D03*
X167134490Y-80613604D03*
X164594490Y-80613604D03*
X162054490Y-80613604D03*
X159514490Y-80613604D03*
X156974490Y-80613604D03*
X154434490Y-80613604D03*
D14*
X195074490Y-80613604D03*
D15*
X208746396Y-80153604D03*
D16*
X208746396Y-77613604D03*
X208746396Y-75073604D03*
D17*
X199794490Y-106113604D03*
D18*
X197254490Y-106113604D03*
X194714490Y-106113604D03*
X192174490Y-106113604D03*
X189634490Y-106113604D03*
X187094490Y-106113604D03*
X184554490Y-106113604D03*
X184554490Y-114053604D03*
X187094490Y-114053604D03*
X189634490Y-114053604D03*
X192174490Y-114053604D03*
X194714490Y-114053604D03*
X197254490Y-114053604D03*
X199794490Y-114053604D03*
D19*
X174666396Y-106113604D03*
D20*
X172126396Y-106113604D03*
X169586396Y-106113604D03*
X167046396Y-106113604D03*
X164506396Y-106113604D03*
X161966396Y-106113604D03*
X159426396Y-106113604D03*
X156886396Y-106113604D03*
X154346396Y-106113604D03*
X151806396Y-106113604D03*
X151806396Y-113733604D03*
X154346396Y-113733604D03*
X156886396Y-113733604D03*
X159426396Y-113733604D03*
X161966396Y-113733604D03*
X164506396Y-113733604D03*
X167046396Y-113733604D03*
X169586396Y-113733604D03*
X172126396Y-113733604D03*
X174666396Y-113733604D03*
D21*
X222390000Y-75450000D03*
D22*
X222390000Y-77990000D03*
X222390000Y-80530000D03*
X222390000Y-83070000D03*
X222390000Y-85610000D03*
X222390000Y-88150000D03*
X222390000Y-90690000D03*
X222390000Y-93230000D03*
X222390000Y-95770000D03*
X222390000Y-98310000D03*
X222390000Y-100850000D03*
X222390000Y-103390000D03*
X222390000Y-105930000D03*
X222390000Y-108470000D03*
X222390000Y-111010000D03*
X237630000Y-111010000D03*
X237630000Y-108470000D03*
X237630000Y-105930000D03*
X237630000Y-103390000D03*
X237630000Y-100850000D03*
X237630000Y-98310000D03*
X237630000Y-95770000D03*
X237630000Y-93230000D03*
X237630000Y-90690000D03*
X237630000Y-88150000D03*
X237630000Y-85610000D03*
X237630000Y-83070000D03*
X237630000Y-80530000D03*
X237630000Y-77990000D03*
X237630000Y-75450000D03*
D23*
X208254490Y-110363604D03*
X208254490Y-112863604D03*
X216616116Y-74383884D03*
X218383883Y-72616117D03*
X147004490Y-101113604D03*
X149504490Y-101113604D03*
D24*
X156974490Y-95853604D02*
X156974490Y-98333604D01*
X180254490Y-100613604D02*
X180254490Y-105113604D01*
X157754490Y-99113604D02*
X178754490Y-99113604D01*
X156974490Y-98333604D02*
X157754490Y-99113604D01*
X187094490Y-111953604D02*
X187094490Y-114053604D01*
X180254490Y-105113604D02*
X187094490Y-111953604D01*
X178754490Y-99113604D02*
X180254490Y-100613604D01*
X150754490Y-92613604D02*
X144254490Y-92613604D01*
X142754490Y-94113604D02*
X142754490Y-106113604D01*
X142754490Y-106113604D02*
X145754490Y-109113604D01*
X151894490Y-95853604D02*
X151894490Y-93753604D01*
X144254490Y-92613604D02*
X142754490Y-94113604D01*
X151894490Y-93753604D02*
X150754490Y-92613604D01*
X167506396Y-109113604D02*
X172126396Y-113733604D01*
X145754490Y-109113604D02*
X167506396Y-109113604D01*
D25*
X170180000Y-125327070D02*
X170180000Y-128397000D01*
X139254490Y-123113604D02*
X130754490Y-114613604D01*
X172113604Y-123113604D02*
X139254490Y-123113604D01*
X186254490Y-87613604D02*
X189994490Y-91353604D01*
X172720000Y-128397000D02*
X172720000Y-123720000D01*
X134754490Y-87613604D02*
X186254490Y-87613604D01*
X130754490Y-91613604D02*
X134754490Y-87613604D01*
X189994490Y-91353604D02*
X189994490Y-95853604D01*
X130754490Y-114613604D02*
X130754490Y-91613604D01*
X172720000Y-123720000D02*
X172113604Y-123113604D01*
X184254490Y-88613604D02*
X187454490Y-91813604D01*
X174613604Y-122113604D02*
X139754490Y-122113604D01*
X131754490Y-114113604D02*
X131754490Y-92113604D01*
X187454490Y-91813604D02*
X187454490Y-95853604D01*
X135254490Y-88613604D02*
X184254490Y-88613604D01*
X175260000Y-128397000D02*
X175260000Y-122760000D01*
X139754490Y-122113604D02*
X131754490Y-114113604D01*
X175260000Y-122760000D02*
X174613604Y-122113604D01*
X131754490Y-92113604D02*
X135254490Y-88613604D01*
X184914490Y-90773604D02*
X184914490Y-95853604D01*
X132754490Y-92613604D02*
X135754490Y-89613604D01*
X132754490Y-113613604D02*
X132754490Y-92613604D01*
X183754490Y-89613604D02*
X184914490Y-90773604D01*
X177800000Y-123300000D02*
X175613604Y-121113604D01*
X175613604Y-121113604D02*
X140254490Y-121113604D01*
X135754490Y-89613604D02*
X183754490Y-89613604D01*
X140254490Y-121113604D02*
X132754490Y-113613604D01*
X177800000Y-128397000D02*
X177800000Y-123300000D01*
X136254490Y-91113604D02*
X180754490Y-91113604D01*
X180340000Y-121500000D02*
X178953604Y-120113604D01*
X180754490Y-91113604D02*
X182374490Y-92733604D01*
X178953604Y-120113604D02*
X141254490Y-120113604D01*
X180340000Y-121500000D02*
X180340000Y-128397000D01*
X134254490Y-113113604D02*
X134254490Y-93113604D01*
X134254490Y-93113604D02*
X136254490Y-91113604D01*
X141254490Y-120113604D02*
X134254490Y-113113604D01*
X182374490Y-92733604D02*
X182374490Y-95853604D01*
X182880000Y-126170000D02*
X182880000Y-128397000D01*
X185420000Y-125770000D02*
X185420000Y-128397000D01*
X187960000Y-125770000D02*
X187960000Y-128397000D01*
X190500000Y-125770000D02*
X190500000Y-128397000D01*
D24*
X162754490Y-103613604D02*
X174254490Y-103613604D01*
X174666396Y-106113604D02*
X177254490Y-106113604D01*
X179254490Y-108113604D02*
X179254490Y-119613604D01*
X179254490Y-119613604D02*
X181254490Y-121613604D01*
X159254490Y-100113604D02*
X162754490Y-103613604D01*
X174666396Y-104025510D02*
X174666396Y-106113604D01*
X174254490Y-103613604D02*
X174666396Y-104025510D01*
X177254490Y-106113604D02*
X179254490Y-108113604D01*
X181254490Y-121613604D02*
X212113604Y-121613604D01*
X153614490Y-100113604D02*
X159254490Y-100113604D01*
X213360000Y-122860000D02*
X213360000Y-128397000D01*
X149354490Y-95853604D02*
X153614490Y-100113604D01*
X212113604Y-121613604D02*
X213360000Y-122860000D01*
D26*
X151806396Y-106113604D02*
X151806396Y-103415510D01*
X151806396Y-103415510D02*
X149504490Y-101113604D01*
X208746396Y-75073604D02*
X208746396Y-71605510D01*
X224451604Y-119003604D02*
X214394490Y-119003604D01*
X208254490Y-112863604D02*
X190824490Y-112863604D01*
D27*
X146254490Y-108113604D02*
X169046396Y-108113604D01*
D26*
X208746396Y-71605510D02*
X207754490Y-70613604D01*
X207754490Y-70613604D02*
X148374490Y-70613604D01*
D27*
X143754490Y-101613604D02*
X143754490Y-105613604D01*
D26*
X220000000Y-109000000D02*
X220000000Y-80500000D01*
X214573604Y-75073604D02*
X208746396Y-75073604D01*
X208254490Y-112863604D02*
X208379490Y-112988604D01*
X231140000Y-128397000D02*
X231140000Y-125692000D01*
D27*
X169046396Y-108113604D02*
X174666396Y-113733604D01*
D26*
X231140000Y-125692000D02*
X224451604Y-119003604D01*
X208379490Y-112988604D02*
X216011396Y-112988604D01*
D27*
X144254490Y-101113604D02*
X143754490Y-101613604D01*
D26*
X216011396Y-112988604D02*
X220000000Y-109000000D01*
X146814490Y-72173604D02*
X146814490Y-80613604D01*
X214394490Y-119003604D02*
X208254490Y-112863604D01*
X220000000Y-80500000D02*
X214573604Y-75073604D01*
D27*
X147004490Y-101113604D02*
X144254490Y-101113604D01*
D26*
X190824490Y-112863604D02*
X189634490Y-114053604D01*
X148374490Y-70613604D02*
X146814490Y-72173604D01*
D27*
X143754490Y-105613604D02*
X146254490Y-108113604D01*
D26*
X187846396Y-75113604D02*
X187846396Y-75346396D01*
X192534490Y-80034490D02*
X192534490Y-80613604D01*
X187846396Y-75346396D02*
X192534490Y-80034490D01*
M02*
